Coordinates
version=1
nRows=19
nColumns=36
inDegrees=yes

Units are S.I. units (second, meters, Newtons, ...)
If the header above contains a line with 'inDegrees', this indicates whether rotational values are in degrees (yes) or radians (no).

endheader
time	pelvis_tilt	pelvis_list	pelvis_rotation	pelvis_tx	pelvis_ty	pelvis_tz	hip_flexion_r	hip_adduction_r	hip_rotation_r	knee_angle_r	knee_angle_r_beta	ankle_angle_r	subtalar_angle_r	mtp_angle_r	hip_flexion_l	hip_adduction_l	hip_rotation_l	knee_angle_l	knee_angle_l_beta	ankle_angle_l	subtalar_angle_l	mtp_angle_l	lumbar_extension	lumbar_bending	lumbar_rotation	arm_flex_r	arm_add_r	arm_rot_r	elbow_flex_r	pro_sup_r	arm_flex_l	arm_add_l	arm_rot_l	elbow_flex_l	pro_sup_l
      0.93000000	      3.12282778	      4.05475066	      3.32121851	      1.14375583	      0.89548548	     -0.28283976	     23.02858860	     -4.45998099	     -6.63976375	     15.37050348	      0.26826589	     -0.64040421	    -20.48943714	     -7.42763753	    -12.97919817	      7.58781593	     -3.05947243	     10.87209089	      0.18975378	     15.81737940	     11.24849381	     -7.42763753	    -14.24145969	     -6.39357741	    -14.35371006	     -3.81118556	     -4.89838238	     -3.24554259	     21.80191332	     91.38731194	     23.08743968	    -13.90094619	      2.61994022	     45.70273024	     97.27113420
      0.94000000	      2.82413661	      4.06304767	      3.53747914	      1.15736691	      0.89288804	     -0.28245261	     23.14705713	     -4.22829689	     -6.95248905	     11.88570127	      0.20744462	     -0.49438183	    -19.31796524	     -7.42897614	    -13.67745111	      7.38063483	     -3.24610167	     10.83139391	      0.18904349	     16.33735401	     12.04136299	     -7.42897614	    -13.93086468	     -6.45899100	    -14.76749071	     -3.98067622	     -4.88524675	     -3.49200506	     21.46954712	     91.14191216	     23.78483873	    -14.20564007	      2.97811991	     46.71676968	     97.42190237
      0.95000000	      2.63912121	      3.99655389	      3.80616026	      1.17116634	      0.89032656	     -0.28204981	     23.19615076	     -3.96642908	     -7.45132486	      8.95144540	      0.15623219	      0.55715483	    -16.98438016	     -7.43356624	    -14.35126310	      6.97048843	     -3.96377676	     11.07905457	      0.19336598	     17.10423361	     13.99525822	     -7.43356624	    -13.73714163	     -6.41780338	    -15.20464287	     -4.14070526	     -4.86378701	     -3.86779759	     21.18774550	     90.41563504	     24.40882490	    -14.49659866	      3.29093591	     47.81577070	     97.62034073
      0.96000000	      2.45299855	      3.91611304	      4.10546245	      1.18497980	      0.88776064	     -0.28173466	     23.18692402	     -3.66376262	     -7.26538628	      6.27921101	      0.10959291	      1.14405790	    -15.44226662	     -7.43524991	    -15.02974318	      6.62789289	     -3.98213724	     11.32598148	      0.19767567	     17.50649437	     14.37044037	     -7.43524991	    -13.58171110	     -6.33724194	    -15.62461266	     -4.20459085	     -4.87190842	     -4.06925869	     20.74328749	     90.13341915	     25.00972006	    -14.73492946	      3.70524089	     48.81659622	     97.79394452
      0.97000000	      2.13068114	      3.82566991	      4.46587426	      1.19891076	      0.88503849	     -0.28143901	     23.39766841	     -3.40190199	     -6.60214159	      4.29404104	      0.07494515	      1.75757797	    -14.23507743	     -7.43591158	    -15.44306991	      6.26607114	     -3.82639612	     11.78852994	      0.20574866	     17.65595533	     14.65000770	     -7.43591158	    -13.24494095	     -6.22527168	    -16.05021492	     -4.36627826	     -4.89477295	     -4.22056241	     20.41693156	     89.99352261	     25.57863869	    -14.88511099	      3.96337556	     49.51857140	     97.91009055
      0.98000000	      2.16461514	      3.64871984	      4.88896817	      1.21320093	      0.88280100	     -0.28130171	     23.38499681	     -3.19384622	     -6.77968497	      3.23410995	      0.05644587	      3.94518811	    -10.61418182	     -7.43996088	    -16.12932025	      5.64950476	     -4.42552825	     12.47269247	      0.21768955	     18.22450604	     16.10036337	     -7.43996088	    -13.29904983	     -5.93495795	    -16.59681340	     -4.34540087	     -4.87464903	     -4.68848608	     20.04734587	     89.26854972	     25.95443546	    -15.14313656	      4.32870169	     50.50107395	     98.21313478
      0.99000000	      2.04743350	      3.46403887	      5.33992509	      1.22749910	      0.88044473	     -0.28123079	     23.50735975	     -2.94503451	     -5.73426452	      2.62291965	      0.04577858	      4.44880917	     -9.98226136	     -7.44036956	    -16.59817604	      5.13564796	     -4.11191305	     13.24841634	      0.23122849	     18.14797621	     16.14270223	     -7.44036956	    -13.18405709	     -5.61361976	    -16.93484854	     -4.48998907	     -4.94195659	     -4.82075878	     19.73013345	     89.16857272	     26.45095568	    -15.10736342	      4.55034477	     51.05232180	     98.31128727
      1.00000000	      2.07575087	      3.25463850	      5.81553448	      1.24220885	      0.87833624	     -0.28116786	     23.47046254	     -2.70164498	     -4.77387066	      2.58078326	      0.04504317	      5.66089917	     -8.43476941	     -7.44203046	    -17.13568318	      4.49464816	     -4.30514515	     14.19354451	      0.24772408	     18.35167599	     16.43539290	     -7.44203046	    -13.19235344	     -5.23817360	    -17.44555517	     -4.41638364	     -4.92161239	     -5.34999985	     19.18625100	     88.77335022	     26.62376426	    -15.36274537	      5.14867308	     51.94964577	     98.57593433
      1.01000000	      2.13216083	      2.99108570	      6.36697100	      1.25716243	      0.87642218	     -0.28126996	     23.40671544	     -2.41968495	     -3.77029108	      3.04754889	      0.05318976	      5.90056275	     -7.98100410	     -7.44244671	    -17.64307950	      3.80852177	     -3.98193733	     15.23718584	      0.26593906	     18.06303178	     16.49814578	     -7.44244671	    -13.20832680	     -4.74351679	    -17.76587625	     -4.56858497	     -4.98584979	     -5.52370981	     18.93679419	     88.65757091	     26.93592617	    -15.18212323	      5.33668216	     52.35344091	     98.66775462
      1.02000000	      2.13124049	      2.69462963	      6.87629123	      1.27242061	      0.87447586	     -0.28124802	     23.47065947	     -2.08357583	     -2.92753931	      4.05727536	      0.07081281	      6.34803986	     -7.24285991	     -7.44473988	    -17.89765377	      3.01741065	     -4.13521262	     16.65328644	      0.29065468	     17.88596371	     16.86598591	     -7.44473988	    -13.11944619	     -4.21219830	    -18.07626672	     -4.61821379	     -4.97436436	     -6.43670489	     18.57115464	     88.06245949	     26.94263063	    -15.23255510	      5.85510930	     53.08023730	     99.01010050
      1.03000000	      2.30802040	      2.34496234	      7.34478231	      1.28798973	      0.87293680	     -0.28128928	     23.27057213	     -1.61516805	     -2.08328944	      5.24243323	      0.09149772	      6.00002725	     -7.17217796	     -7.44507924	    -18.39345868	      2.22914145	     -3.82369382	     17.92730922	      0.31289057	     17.32370110	     16.77679683	     -7.44507924	    -13.19302391	     -3.56736389	    -18.19976725	     -4.78076187	     -5.09178751	     -6.60510751	     18.33915786	     87.96155350	     27.01838076	    -14.97315364	      6.04848058	     53.41072949	     99.09390296
      1.04000000	      2.38685052	      1.99707358	      7.74926299	      1.30381709	      0.87138098	     -0.28115159	     23.27446682	     -1.11362739	     -1.66410431	      6.81354499	      0.11891879	      5.11634817	     -7.69169674	     -7.44572920	    -18.49750407	      1.37743707	     -4.10422585	     19.72995203	      0.34435262	     16.40870273	     16.40044496	     -7.44572920	    -13.13080800	     -2.93295425	    -18.16478432	     -4.91981522	     -5.15747110	     -7.00872776	     17.93339840	     87.74385326	     26.87550235	    -14.78187779	      6.46101447	     54.01201341	     99.26406722
      1.05000000	      2.23446721	      1.63062233	      7.96807892	      1.31986056	      0.86972042	     -0.28065742	     23.36041253	     -0.41457125	     -0.27180979	      8.13031540	      0.14190077	      2.57077749	    -10.58094276	     -7.44870291	    -18.30049763	      0.61117465	     -4.25635590	     21.60277117	      0.37703948	     15.36428760	     16.17895957	     -7.44870291	    -12.74207735	     -2.33956239	    -18.00993557	     -5.06052779	     -5.13540880	     -8.24099535	     17.77523209	     86.94406113	     26.47733903	    -14.65111197	      6.87049227	     54.51187412	     99.68805040
      1.06000000	      2.46896945	      1.21328638	      8.11478482	      1.33621198	      0.86882776	     -0.28017516	     23.12505215	      0.30289795	     -0.28295464	      9.74076578	      0.17000843	      1.32828508	    -11.15074363	     -7.44928739	    -18.40020736	     -0.26847457	     -4.59840505	     23.62204922	      0.41228253	     13.85096214	     15.66813287	     -7.44928739	    -12.78549414	     -1.62766664	    -17.61769390	     -5.21431575	     -5.25035744	     -8.42402475	     17.47094459	     86.79604588	     26.14791149	    -14.31478935	      7.14114597	     54.88954513	     99.81136630
      1.07000000	      2.39336532	      0.78511920	      8.01994431	      1.35260538	      0.86783305	     -0.27924080	     23.07154197	      1.23038096	      0.94515899	     11.02120468	      0.19235631	     -1.92559153	    -15.00366030	     -7.45250246	    -18.01353259	     -1.00051868	     -4.90347625	     25.84943762	      0.45115780	     11.81200165	     14.57538799	     -7.45250246	    -12.42663809	     -0.98479765	    -17.09012119	     -5.26307944	     -5.31880829	     -8.92867985	     17.15933829	     86.09983132	     25.54734321	    -14.10018560	      7.43057944	     55.18628371	    100.21120542
      1.08000000	      2.69248533	      0.35122748	      7.88292536	      1.36900698	      0.86760116	     -0.27832033	     22.74894538	      2.04832575	      0.81062657	     12.69209407	      0.22151883	     -2.71902924	    -15.56160637	     -7.45296592	    -17.78157152	     -1.86758865	     -5.48578743	     28.45999596	      0.49672063	      9.64738072	     13.93075929	     -7.45296592	    -12.54689370	     -0.28325967	    -16.36389961	     -5.28811297	     -5.43308304	     -8.98050918	     16.78812341	     85.98799292	     25.04184614	    -13.72460578	      7.63061089	     55.49028975	    100.30575030
      1.09000000	      2.78526278	     -0.18757047	      7.52859583	      1.38538403	      0.86746629	     -0.27703037	     22.67205981	      3.03355499	      0.89276433	     14.43953423	      0.25201741	     -3.53437718	    -16.68179024	     -7.45355819	    -17.12076346	     -2.79075977	     -6.28144525	     31.30277270	      0.54633645	      6.69569796	     12.78646205	     -7.45355819	    -12.40149234	      0.46983459	    -15.49930382	     -5.16308894	     -5.54714381	     -8.97808440	     16.31989086	     85.84098636	     24.31102479	    -13.37538444	      7.83024433	     55.64452498	    100.40602097
      1.10000000	      2.72261032	     -0.60981310	      7.00283717	      1.40139515	      0.86761417	     -0.27558978	     22.63564917	      3.99236479	      1.81630554	     16.04314724	      0.28000574	     -5.00910478	    -19.24698779	     -7.45548119	    -16.12798079	     -3.33072168	     -6.48782128	     34.26042632	      0.59795724	      2.83119176	     10.09935826	     -7.45548119	    -12.12676362	      1.01601412	    -14.51965101	     -4.88779811	     -5.72868293	     -8.42399983	     15.60766334	     85.44992928	     23.51115443	    -13.04632422	      7.88838574	     55.53683955	    100.63703452
      1.11000000	      3.02708894	     -1.31203269	      6.47492850	      1.41724634	      0.86849815	     -0.27407322	     22.16075651	      5.16206543	      1.85526491	     17.61016356	      0.30735534	     -4.80103652	    -19.94831171	     -7.45608917	    -15.23936525	     -4.47131545	     -7.35814524	     37.64534765	      0.65703526	     -0.44918318	      8.99122451	     -7.45608917	    -12.32409350	      1.93536322	    -13.35793787	     -4.57287147	     -5.88774086	     -8.17012824	     15.13201337	     85.32070861	     22.76005961	    -12.59177624	      7.94333265	     55.48575734	    100.71428422
